<svg width="81" height="80" viewBox="0 0 81 80" fill="none" xmlns="http://www.w3.org/2000/svg">
<g clip-path="url(#clip0_74_535)">
<path d="M57.2394 0H9.96006C4.88557 0.00656658 0.773412 4.11872 0.766846 9.19321V56.3636C0.773412 61.4381 4.88557 65.5502 9.96006 65.5568H24.4065V62.9302H9.96006C6.33531 62.9259 3.39775 59.9883 3.39348 56.3636V34.1462H11.8276C12.6059 34.0893 13.1908 33.4122 13.1339 32.6338C13.1229 32.4837 13.0881 32.3363 13.0306 32.1973C11.8634 29.5411 13.0703 26.4417 15.7265 25.2744C18.3827 24.1072 21.4821 25.3142 22.6493 27.9704C23.2411 29.3172 23.2411 30.8505 22.6493 32.1973C22.3249 32.8759 22.6122 33.689 23.2909 34.0134C23.4664 34.0973 23.6579 34.1426 23.8523 34.1464H32.2864V42.0263C31.8525 41.9524 31.4132 41.916 30.9731 41.9173C26.6211 41.9158 23.0921 45.4425 23.0904 49.7944C23.0893 52.9298 24.9471 55.7673 27.8212 57.0204L28.8718 54.6144C26.2114 53.4571 24.9928 50.3622 26.15 47.7018C26.9849 45.7822 28.8799 44.5416 30.9731 44.5439C31.6969 44.5437 32.4127 44.6949 33.0744 44.9878C33.7391 45.2779 34.5133 44.9742 34.8034 44.3095C34.8756 44.144 34.9129 43.9654 34.9131 43.7848V34.1462H41.5913C41.5166 34.5799 41.4792 35.0194 41.4796 35.4595C41.4875 39.2015 44.1189 42.425 47.7836 43.1818L48.3089 40.6091C45.8658 40.1036 44.1117 37.9543 44.1063 35.4595C44.1061 34.7357 44.2573 34.02 44.5502 33.3582C44.8403 32.6935 44.5366 31.9193 43.8719 31.6293C43.7064 31.557 43.5278 31.5198 43.3472 31.5196H34.9131V24.8414C35.3468 24.9161 35.7863 24.9535 36.2264 24.953C40.5784 24.953 44.1063 21.4251 44.1063 17.0731C44.1063 12.7211 40.5784 9.19321 36.2264 9.19321C35.7863 9.19272 35.3468 9.23015 34.9131 9.30485V2.62663H57.2394C60.8642 2.6309 63.8018 5.56846 63.806 9.19321V31.5196H55.3719C54.6466 31.5199 54.0589 32.1083 54.0592 32.8336C54.0594 33.0141 54.0967 33.1928 54.1689 33.3582C54.4618 34.02 54.613 34.7357 54.6128 35.4595H57.2394C57.2399 35.0194 57.2025 34.5799 57.1278 34.1462H65.1193C65.8446 34.1462 66.4327 33.5582 66.4327 32.8329V9.19321C66.4261 4.11872 62.3139 0.00656658 57.2394 0ZM36.2264 11.8198C39.1277 11.8198 41.4796 14.1718 41.4796 17.0731C41.4796 19.9744 39.1277 22.3264 36.2264 22.3264C35.5026 22.3265 34.7868 22.1753 34.1251 21.8825C33.4604 21.5924 32.6862 21.8961 32.3961 22.5608C32.3239 22.7263 32.2866 22.9049 32.2864 23.0855V31.4106H25.6174C25.6832 31.0125 25.7174 30.6098 25.7199 30.2063C25.7199 30.1826 25.7199 30.1616 25.7199 30.138C25.7199 30.1143 25.7199 30.1104 25.7199 30.0973C25.7199 25.7453 22.192 22.2174 17.84 22.2174C13.488 22.2174 9.96006 25.7453 9.96006 30.0973C9.96006 30.1104 9.96006 30.1248 9.96006 30.138C9.96006 30.1511 9.96006 30.1826 9.96006 30.2063C9.96252 30.6098 9.99667 31.0125 10.0625 31.4106H3.39348V9.19321C3.39775 5.56846 6.33531 2.6309 9.96006 2.62663H32.2864V11.0607C32.2868 11.786 32.8751 12.3737 33.6004 12.3734C33.781 12.3732 33.9596 12.336 34.1251 12.2637C34.7868 11.9709 35.5026 11.8197 36.2264 11.8198Z" fill="black"/>
<path d="M38.8333 45.3332L30.8333 49.3332L34.8333 58.6665L30.8333 59.9998L28.1666 63.9998V67.9998L30.8333 71.9998H34.8333H38.8333L42.8333 78.6665L62.8333 70.6665L61.5 69.3332L58.8333 66.6665L57.5 62.6665L58.8333 59.9998H61.5L66.8333 65.3332H69.5V61.3332L66.8333 54.6665L60.1666 38.6665L52.1666 41.3332L53.5 45.3332L52.1666 49.3332L48.1666 51.9998H44.1666L40.1666 49.3332L38.8333 45.3332Z" fill="#0CC0FF"/>
<path d="M76.7577 56.4485L65.7166 48.8457L61.4759 37.5157C61.223 36.8359 60.4668 36.49 59.787 36.743C59.7627 36.752 59.7386 36.7619 59.7148 36.7724L51.1782 40.5482C50.5383 40.8307 50.2323 41.5653 50.4822 42.2187C50.624 42.5864 50.7567 42.8649 50.8972 43.1538C51.0377 43.4427 51.1677 43.7133 51.3266 44.1401C52.3461 46.8641 50.9735 49.9001 48.2548 50.9339C45.5374 51.9502 42.5105 50.5714 41.494 47.8538C41.2391 47.1722 41.1286 46.4451 41.1694 45.7187C41.2075 44.9944 40.6512 44.3763 39.9269 44.3382C39.7453 44.3287 39.5639 44.3569 39.3938 44.4211L30.2689 47.8581C29.5914 48.1134 29.2483 48.8688 29.5019 49.547L32.7774 58.2976C32.3431 58.3768 31.9168 58.4945 31.5034 58.6496C27.4166 60.1726 25.3382 64.7202 26.8612 68.8071C28.3842 72.894 32.9318 74.9723 37.0187 73.4494C37.4395 73.2926 37.8461 73.1002 38.2342 72.8741L40.5824 79.1465C40.8369 79.8258 41.5937 80.1701 42.273 79.9156C42.2738 79.9153 42.2744 79.915 42.2753 79.9148L55.2876 75.0122C56.105 76.7691 57.609 78.1121 59.4469 78.7263L60.2769 76.231C59.1944 75.8662 58.2948 75.0974 57.7658 74.085L61.7255 72.5944C63.0261 76.2528 66.491 78.6946 70.3737 78.6895V76.0629C66.7563 76.0407 63.8292 73.1137 63.8071 69.4963C63.8071 69.1479 63.6685 68.814 63.4223 68.5678L58.8493 63.9948C58.1713 63.3109 58.0948 62.2343 58.6694 61.4614C59.004 61.0098 59.5204 60.7284 60.0812 60.6918C60.6428 60.6445 61.1959 60.8514 61.5889 61.2552L70.7585 70.4248L72.6155 68.5678L69.9022 65.8545C70.5707 63.8554 70.5295 61.687 69.7853 59.7147L67.3241 53.1416L75.2605 58.6063C76.3125 59.3447 76.9393 60.5492 76.9402 61.8344V78.7985H79.5669V61.8344C79.5651 59.6883 78.5165 57.6781 76.7577 56.4485ZM67.3255 60.6353C67.6883 61.5996 67.8196 62.6355 67.7089 63.6599L63.4459 59.3982C61.6862 57.5935 58.7969 57.5573 56.9923 59.3168C55.1876 61.0764 55.1513 63.9657 56.9109 65.7704C56.9376 65.7978 56.9647 65.8251 56.9923 65.8518L61.1463 70.0059L42.5865 76.9966L40.0833 70.3079C39.9275 69.8923 39.5723 69.5836 39.1391 69.4871C39.0455 69.4664 38.9499 69.4557 38.8541 69.4556C38.5105 69.4552 38.1805 69.5897 37.9348 69.8299C35.8259 71.8223 32.5009 71.7279 30.5084 69.6189C28.516 67.5101 28.6104 64.1851 30.7194 62.1926C31.2155 61.7239 31.798 61.3565 32.4346 61.1106C32.8527 60.9556 33.2894 60.8568 33.7335 60.8164C34.0066 60.7829 34.2821 60.7737 34.5569 60.7888C35.2812 60.8268 35.8993 60.2704 35.9372 59.5461C35.9467 59.366 35.919 59.1859 35.8558 59.0172L32.4254 49.8581L38.6794 47.5033C39.5002 51.7772 43.6303 54.5764 47.9041 53.7557C48.3408 53.6718 48.7696 53.5511 49.1859 53.3949C53.2584 51.8497 55.3168 47.3045 53.7917 43.2245C53.6709 42.9015 53.5619 42.6454 53.4568 42.4168L59.4981 39.7416L67.3255 60.6353Z" fill="black"/>
</g>
<defs>
<clipPath id="clip0_74_535">
<rect width="80" height="80" fill="white" transform="translate(0.166626)"/>
</clipPath>
</defs>
</svg>
