<svg width="81" height="80" viewBox="0 0 81 80" fill="none" xmlns="http://www.w3.org/2000/svg">
<g clip-path="url(#clip0_74_593)">
<path d="M46.1666 57.3333H32.8333V74.6667L36.8333 78.6667H75.4999L79.4999 74.6667V45.3333L62.1666 28H54.1666V50.6667C54.1666 54.6667 50.1666 57.3333 46.1666 57.3333Z" fill="#0CC0FF"/>
<path d="M50.3447 17.1549L33.6781 0.488278C33.3663 0.174999 32.9413 0 32.4998 0H7.49993C3.82323 0 0.833252 2.98998 0.833252 6.66668V46.6665C0.833252 50.3431 3.82323 53.3331 7.49993 53.3331H44.1664C47.8431 53.3331 50.8331 50.3431 50.8331 46.6665V18.3332C50.833 17.8915 50.658 17.4665 50.3447 17.1549ZM47.4997 46.6663C47.4997 48.5046 46.0047 49.9996 44.1664 49.9996H7.49993C5.66166 49.9996 4.16667 48.5046 4.16667 46.6663V6.66652C4.16667 4.82825 5.66166 3.33326 7.49993 3.33326H31.8098L47.4997 19.0232V46.6663Z" fill="black"/>
<path d="M80.3447 43.8212L63.6781 27.1548C63.3663 26.8415 62.9431 26.6665 62.4998 26.6665H55.8331C54.9114 26.6665 54.1664 27.4132 54.1664 28.3332C54.1664 29.2532 54.9114 29.9999 55.8331 29.9999H61.8098L77.4997 45.6898V73.333C77.4997 75.1712 76.0047 76.6662 74.1664 76.6662H37.4999C35.6617 76.6662 34.1667 75.1712 34.1667 73.333V58.333C34.1667 57.413 33.42 56.6663 32.5 56.6663C31.58 56.6663 30.8333 57.413 30.8333 58.333V73.333C30.8333 77.0097 33.8232 79.9996 37.4999 79.9996H74.1664C77.8431 79.9996 80.8331 77.0097 80.8331 73.333V44.9997C80.833 44.558 80.658 44.133 80.3447 43.8212Z" fill="black"/>
<path d="M56.5238 6.66719L60.3455 2.84549C60.9972 2.19378 60.9972 1.1405 60.3455 0.488786C59.6937 -0.162929 58.6405 -0.162929 57.9888 0.488786L52.9888 5.48876C52.3371 6.14047 52.3371 7.19375 52.9888 7.84546L57.9888 12.8454C58.3138 13.1704 58.7405 13.3337 59.167 13.3337C59.5938 13.3337 60.0203 13.1704 60.3453 12.8454C60.997 12.1937 60.997 11.1404 60.3453 10.4887L56.5238 6.66719Z" fill="black"/>
<path d="M67.4999 5H54.1667C53.245 5 52.5 5.74671 52.5 6.66671C52.5 7.5867 53.245 8.33342 54.1667 8.33342H67.4999C68.0566 8.33342 70.8332 8.49342 70.8332 11.6667V24.9999C70.8332 25.9199 71.5782 26.6666 72.4999 26.6666C73.4216 26.6666 74.1666 25.9199 74.1666 24.9999V11.6665C74.1666 6.77499 70.1782 5 67.4999 5Z" fill="black"/>
<path d="M25.3455 72.1553L20.3455 67.1553C19.6938 66.5036 18.6405 66.5036 17.9888 67.1553C17.3371 67.807 17.3371 68.8603 17.9888 69.512L21.8105 73.3337L17.9888 77.1554C17.3371 77.8071 17.3371 78.8604 17.9888 79.5121C18.3138 79.8371 18.7405 80.0004 19.1671 80.0004C19.5938 80.0004 20.0203 79.8371 20.3453 79.5121L25.3453 74.5121C25.9972 73.8602 25.9972 72.8068 25.3455 72.1553Z" fill="black"/>
<path d="M24.1665 71.6664H10.8332C10.2765 71.6664 7.49992 71.5064 7.49992 68.3332V58.3332C7.49992 57.4132 6.75321 56.6665 5.83321 56.6665C4.91322 56.6665 4.1665 57.4132 4.1665 58.3332V68.3332C4.1665 73.2248 8.1532 74.9998 10.8332 74.9998H24.1664C25.0864 74.9998 25.8331 74.2531 25.8331 73.3331C25.8331 72.4131 25.0865 71.6664 24.1665 71.6664Z" fill="black"/>
</g>
<defs>
<clipPath id="clip0_74_593">
<rect width="80" height="80" fill="white" transform="translate(0.833252)"/>
</clipPath>
</defs>
</svg>
