<svg width="81" height="80" viewBox="0 0 81 80" fill="none" xmlns="http://www.w3.org/2000/svg">
<g clip-path="url(#clip0_74_557)">
<circle cx="59.1667" cy="58.6667" r="18.6667" fill="#0CC0FF"/>
<path d="M66.5004 38.6575L68.9004 35.8335C70.0875 34.4342 70.1619 32.404 69.0804 30.9215L57.4911 15.0095C56.7249 13.9537 55.4983 13.3302 54.1938 13.3335H16.1404C14.8392 13.3296 13.6149 13.9499 12.8484 15.0015L1.2631 30.9202C0.179908 32.4038 0.254886 34.4364 1.44443 35.8362L32.0591 71.9055C32.8373 72.8125 33.9727 73.3344 35.1678 73.3344C36.3628 73.3344 37.4983 72.8125 38.2764 71.9055L40.6124 69.1575C45.2526 77.3792 54.7475 81.5699 63.9488 79.4574C73.15 77.3449 79.8662 69.4323 80.4554 60.01C81.0447 50.5877 75.3668 41.9 66.5004 38.6575ZM59.1671 37.3335C53.6988 37.3348 48.4417 39.4447 44.4898 43.2242L46.8484 34.6668H66.3844L63.7004 37.8295C62.2115 37.5021 60.6916 37.3358 59.1671 37.3335ZM35.1671 66.9869L26.2511 34.6668H44.0831L40.0831 49.2002C38.8653 51.6421 38.1318 54.2968 37.9231 57.0175L35.1671 66.9869ZM26.7978 32.0002L35.1671 17.3535L43.5364 32.0002H26.7978ZM66.5591 32.0002H48.1311L56.2338 17.8175L66.5591 32.0002ZM54.2031 16.0002L45.8338 30.6455L37.4644 16.0002H54.2031ZM32.8698 16.0002L24.5004 30.6455L16.1311 16.0002H32.8698ZM14.1004 17.8175L22.2031 32.0002H3.7751L14.1004 17.8175ZM3.94976 34.6668H23.4858L32.8911 68.7655L3.94976 34.6668ZM37.4418 68.7669L38.6418 64.4149C38.841 65.1289 39.0773 65.8321 39.3498 66.5215L37.4418 68.7669ZM59.1671 77.3335C51.6171 77.3335 44.8106 72.7855 41.9213 65.8103C39.0321 58.835 40.6291 50.8062 45.9678 45.4675C51.3064 40.1289 59.3353 38.5319 66.3105 41.4211C73.2858 44.3103 77.8338 51.1169 77.8338 58.6669C77.8227 68.9716 69.4718 77.3225 59.1671 77.3335Z" fill="black"/>
<path d="M70.2246 49.7244L53.834 66.115L48.11 60.391C47.5868 59.8858 46.7552 59.893 46.2409 60.4073C45.7266 60.9216 45.7193 61.7532 46.2246 62.2764L52.8913 68.9431C53.412 69.4636 54.256 69.4636 54.7766 68.9431L72.11 51.6097C72.6153 51.0865 72.608 50.2549 72.0937 49.7406C71.5794 49.2263 70.7478 49.2191 70.2246 49.7244Z" fill="white"/>
<path d="M71.1668 16C71.9032 16 72.5002 15.403 72.5002 14.6667V13.3333C72.5002 12.597 71.9032 12 71.1668 12C70.4304 12 69.8335 12.597 69.8335 13.3333V14.6667C69.8335 15.403 70.4304 16 71.1668 16Z" fill="black"/>
<path d="M73.8335 18.6667H75.1668C75.9032 18.6667 76.5001 18.0697 76.5001 17.3333C76.5001 16.597 75.9032 16 75.1668 16H73.8335C73.0971 16 72.5001 16.597 72.5001 17.3333C72.5001 18.0697 73.0971 18.6667 73.8335 18.6667Z" fill="black"/>
<path d="M71.1668 18.6665C70.4304 18.6665 69.8335 19.2635 69.8335 19.9998V21.3332C69.8335 22.0696 70.4304 22.6665 71.1668 22.6665C71.9032 22.6665 72.5002 22.0696 72.5002 21.3332V19.9998C72.5002 19.2635 71.9032 18.6665 71.1668 18.6665Z" fill="black"/>
<path d="M67.1668 18.6667H68.5002C69.2365 18.6667 69.8335 18.0697 69.8335 17.3333C69.8335 16.597 69.2365 16 68.5002 16H67.1668C66.4304 16 65.8335 16.597 65.8335 17.3333C65.8335 18.0697 66.4304 18.6667 67.1668 18.6667Z" fill="black"/>
<path d="M57.8335 4C58.5698 4 59.1668 3.40305 59.1668 2.66667V1.33333C59.1668 0.596954 58.5698 0 57.8335 0C57.0971 0 56.5001 0.596954 56.5001 1.33333V2.66667C56.5001 3.40305 57.0971 4 57.8335 4Z" fill="black"/>
<path d="M60.5001 6.66667H61.8334C62.5698 6.66667 63.1667 6.06971 63.1667 5.33333C63.1667 4.59695 62.5698 4 61.8334 4H60.5001C59.7637 4 59.1667 4.59695 59.1667 5.33333C59.1667 6.06971 59.7637 6.66667 60.5001 6.66667Z" fill="black"/>
<path d="M57.8335 6.6665C57.0971 6.6665 56.5001 7.26346 56.5001 7.99984V9.33317C56.5001 10.0696 57.0971 10.6665 57.8335 10.6665C58.5698 10.6665 59.1668 10.0696 59.1668 9.33317V7.99984C59.1668 7.26346 58.5698 6.6665 57.8335 6.6665Z" fill="black"/>
<path d="M53.8335 6.66667H55.1668C55.9032 6.66667 56.5001 6.06971 56.5001 5.33333C56.5001 4.59695 55.9032 4 55.1668 4H53.8335C53.0971 4 52.5001 4.59695 52.5001 5.33333C52.5001 6.06971 53.0971 6.66667 53.8335 6.66667Z" fill="black"/>
<path d="M5.83346 9.3335C6.56984 9.3335 7.16679 8.73654 7.16679 8.00016V6.66683C7.16679 5.93045 6.56984 5.3335 5.83346 5.3335C5.09708 5.3335 4.50012 5.93045 4.50012 6.66683V8.00016C4.50012 8.73654 5.09708 9.3335 5.83346 9.3335Z" fill="black"/>
<path d="M8.50008 12.0002H9.83342C10.5698 12.0002 11.1667 11.4032 11.1667 10.6668C11.1667 9.93045 10.5698 9.3335 9.83342 9.3335H8.50008C7.7637 9.3335 7.16675 9.93045 7.16675 10.6668C7.16675 11.4032 7.7637 12.0002 8.50008 12.0002Z" fill="black"/>
<path d="M5.83346 12C5.09708 12 4.50012 12.597 4.50012 13.3333V14.6667C4.50012 15.403 5.09708 16 5.83346 16C6.56984 16 7.16679 15.403 7.16679 14.6667V13.3333C7.16679 12.597 6.56984 12 5.83346 12Z" fill="black"/>
<path d="M1.83346 12.0002H3.16679C3.90317 12.0002 4.50012 11.4032 4.50012 10.6668C4.50012 9.93045 3.90317 9.3335 3.16679 9.3335H1.83346C1.09708 9.3335 0.500122 9.93045 0.500122 10.6668C0.500122 11.4032 1.09708 12.0002 1.83346 12.0002Z" fill="black"/>
<path d="M20.5001 4C21.2365 4 21.8334 3.40305 21.8334 2.66667V1.33333C21.8334 0.596954 21.2365 0 20.5001 0C19.7637 0 19.1667 0.596954 19.1667 1.33333V2.66667C19.1667 3.40305 19.7637 4 20.5001 4Z" fill="black"/>
<path d="M23.1668 6.66667H24.5002C25.2365 6.66667 25.8335 6.06971 25.8335 5.33333C25.8335 4.59695 25.2365 4 24.5002 4H23.1668C22.4304 4 21.8335 4.59695 21.8335 5.33333C21.8335 6.06971 22.4304 6.66667 23.1668 6.66667Z" fill="black"/>
<path d="M20.5001 6.6665C19.7637 6.6665 19.1667 7.26346 19.1667 7.99984V9.33317C19.1667 10.0696 19.7637 10.6665 20.5001 10.6665C21.2365 10.6665 21.8334 10.0696 21.8334 9.33317V7.99984C21.8334 7.26346 21.2365 6.6665 20.5001 6.6665Z" fill="black"/>
<path d="M16.5001 6.66667H17.8334C18.5698 6.66667 19.1667 6.06971 19.1667 5.33333C19.1667 4.59695 18.5698 4 17.8334 4H16.5001C15.7637 4 15.1667 4.59695 15.1667 5.33333C15.1667 6.06971 15.7637 6.66667 16.5001 6.66667Z" fill="black"/>
</g>
<defs>
<clipPath id="clip0_74_557">
<rect width="80" height="80" fill="white" transform="translate(0.5)"/>
</clipPath>
</defs>
</svg>
